HIERARCHY
ROOT Hips
{
	OFFSET 0.00000 0.00000 0.00000
	CHANNELS 6 Xposition Yposition Zposition Zrotation Yrotation Xrotation 
	JOINT LHipJoint
	{
		OFFSET 0 0 0
		CHANNELS 3 Zrotation Yrotation Xrotation
		JOINT LeftHip
		{
			OFFSET 1.55766 -1.60504 1.11378
			CHANNELS 3 Zrotation Yrotation Xrotation
			JOINT LeftKnee
			{
				OFFSET 2.29047 -6.29302 0.00000
				CHANNELS 3 Zrotation Yrotation Xrotation
				JOINT LeftAnkle
				{
					OFFSET 2.52265 -6.93093 0.00000
					CHANNELS 3 Zrotation Yrotation Xrotation
					JOINT LeftToe
					{
						OFFSET 0.17633 -0.48446 2.02656
						CHANNELS 3 Zrotation Yrotation Xrotation
						End Site
						{
							OFFSET 0.00000 -0.00000 1.04989
						}
					}
				}
			}
		}
	}
	JOINT RHipJoint
	{
		OFFSET 0 0 0
		CHANNELS 3 Zrotation Yrotation Xrotation
		JOINT RightHip
		{
			OFFSET -1.48599 -1.60504 1.11378
			CHANNELS 3 Zrotation Yrotation Xrotation
			JOINT RightKnee
			{
				OFFSET -2.27280 -6.24448 0.00000
				CHANNELS 3 Zrotation Yrotation Xrotation
				JOINT RightAnkle
				{
					OFFSET -2.50834 -6.89161 0.00000
					CHANNELS 3 Zrotation Yrotation Xrotation
					JOINT RightToe
					{
						OFFSET -0.26967 -0.74090 2.08741
						CHANNELS 3 Zrotation Yrotation Xrotation
						End Site
						{
							OFFSET -0.00000 -0.00000 1.10614
						}
					}
				}
			}
		}
	}
	JOINT lowerback
	{
		OFFSET 0 0 0
		CHANNELS 3 Zrotation Yrotation Xrotation
		JOINT Chest
		{
			OFFSET 0.06481 2.02437 -0.08472
			CHANNELS 3 Zrotation Yrotation Xrotation
			JOINT Chest2
			{
				OFFSET 0.00015 1.96711 0.18069
				CHANNELS 3 Zrotation Yrotation Xrotation
				JOINT lowerneck
				{
					OFFSET 0 0 0
					CHANNELS 3 Zrotation Yrotation Xrotation
					JOINT Neck
					{
						OFFSET -0.29961 1.68293 -0.13041
						CHANNELS 3 Zrotation Yrotation Xrotation
						JOINT Head
						{
							OFFSET 0.59697 1.61501 -0.14669
							CHANNELS 3 Zrotation Yrotation Xrotation
							End Site
							{
								OFFSET 0.22973 1.74906 -0.10148
							}
						}
					}
				}
				JOINT LeftCollar
				{
					OFFSET 0 0 0
					CHANNELS 3 Zrotation Yrotation Xrotation
					JOINT LeftShoulder
					{
						OFFSET 3.37968 1.02893 0.31147
CHANNELS 3 Zrotation Xrotation Yrotation
						JOINT LeftElbow
						{
OFFSET 0 -5.198070 -0.000000
CHANNELS 3 Zrotation Xrotation Yrotation
							JOINT LeftWrist
							{
OFFSET 0 -3.093700 -0.000000
CHANNELS 3 Zrotation Xrotation Yrotation
								JOINT lhand
								{
									OFFSET 0 0 0
CHANNELS 3 Zrotation Xrotation Yrotation
									JOINT LFingers
									{
OFFSET 0 -0.672630 -0.000000
CHANNELS 3 Zrotation Xrotation Yrotation
										End Site
										{
OFFSET 0 -0.542290 -0.000000
										}
									}
								}
								JOINT LThumb
								{
OFFSET 0 0.000000 0.000000
CHANNELS 3 Zrotation Xrotation Yrotation
									End Site
									{
OFFSET 0 -0.550570 0.550570
									}
								}
							}
						}
					}
				}
				JOINT RightCollar
				{
					OFFSET 0 0 0
					CHANNELS 3 Zrotation Yrotation Xrotation
					JOINT RightShoulder
					{
						OFFSET -3.38254 0.96355 -0.16120
CHANNELS 3 Zrotation Xrotation Yrotation
						JOINT RightElbow
						{
OFFSET 0 -5.452220 -0.000000
CHANNELS 3 Zrotation Xrotation Yrotation
							JOINT RightWrist
							{
OFFSET 0 -3.012840 -0.000000
CHANNELS 3 Zrotation Xrotation Yrotation
								JOINT rhand
								{
									OFFSET 0 0 0
CHANNELS 3 Zrotation Xrotation Yrotation
									JOINT RFingers
									{
OFFSET 0 -0.622300 -0.000000
CHANNELS 3 Zrotation Xrotation Yrotation
										End Site
										{
OFFSET 0 -0.501710 -0.000000
										}
									}
								}
								JOINT RThumb
								{
OFFSET 0 0.000000 0.000000
CHANNELS 3 Zrotation Xrotation Yrotation
									End Site
									{
OFFSET 0 -0.509370 0.509370
									}
								}
							}
						}
					}
				}
			}
		}
	}
}
MOTION
Frames: 12
Frame Time: 0.008333333333333333
-8.358445 16.443434 -10.328097 -371.220087 24.703267 5.172680 0.000000 0.000000 0.000000 -12.022156 -6.724222 -46.885818 3.721281 11.778116 34.953912 0.432058 1.342800 -12.978920 0.759829 -5.566629 -15.532061 0.000000 0.000000 0.000000 30.665235 -1.178976 -8.804916 -1.358591 -7.377082 20.837908 -0.520720 18.870774 -17.463112 -0.766927 5.591902 -15.604961 11.829873 3.903137 2.343132 0.439290 5.916836 -4.742117 -6.477621 2.448811 -5.219923 -32.973186 -8.489426 22.523591 39.444436 -19.658559 -0.181082 20.705313 -12.170647 4.264420 0.000000 0.000000 0.000000 5.229928 18.015338 -23.442276 27.279215 -38.444090 9.672250 12.702650 -44.015553 10.624280 0.000000 0.000000 0.000000 -7.125000 0.000000 0.000000 -10.134525 19.184038 -6.340916 0.000000 0.000000 0.000000 -10.231997 -0.986703 13.312652 -15.524966 -24.872329 -3.443753 -9.582714 23.062135 2.829937 0.000000 0.000000 0.000000 7.125000 0.000000 0.000000 13.710412 32.629404 4.259715
-8.202552 16.437301 -9.983849 -371.394970 24.799755 5.344124 0.000000 0.000000 0.000000 -11.476906 -6.436125 -47.224647 2.843217 10.434685 30.398264 0.398620 3.354743 -13.638671 0.641857 -5.125085 -14.265646 0.000000 0.000000 0.000000 30.872603 -1.734727 -6.208212 -1.044415 -6.497517 18.235427 -0.472741 18.534972 -16.925322 -0.926700 6.131821 -17.167600 11.833393 4.089797 2.134223 0.397253 6.143505 -4.841249 -6.515244 2.561710 -5.158249 -32.877833 -8.554047 22.473279 39.366444 -19.729561 -0.039197 20.618931 -12.192954 4.318820 0.000000 0.000000 0.000000 5.138194 17.996282 -23.869054 26.720893 -37.911546 9.327209 12.534688 -43.642794 10.369900 0.000000 0.000000 0.000000 -7.125000 0.000000 0.000000 -10.261462 19.448784 -6.361295 0.000000 0.000000 0.000000 -9.702684 -1.441662 13.534706 -15.784200 -25.227113 -3.553510 -9.655058 23.026020 2.480866 0.000000 0.000000 0.000000 7.125000 0.000000 0.000000 13.597890 32.287837 4.338332
-8.027234 16.430597 -9.628666 -371.503613 24.788012 5.702964 0.000000 0.000000 0.000000 -10.863206 -6.243056 -47.566646 2.255788 9.379493 26.989829 0.357329 5.284426 -14.476087 0.588628 -4.912134 -13.658063 0.000000 0.000000 0.000000 30.886809 -2.263856 -3.615396 -0.752426 -5.539988 15.455462 -0.348850 18.489151 -15.938969 -1.164629 6.850598 -19.273526 11.778827 4.323740 1.746994 0.295575 6.411195 -5.041216 -6.571708 2.693344 -5.093415 -32.750200 -8.628624 22.405896 39.228250 -19.816270 0.182349 20.486816 -12.216258 4.390531 0.000000 0.000000 0.000000 5.261583 18.037182 -24.191391 25.747057 -36.957712 8.735209 12.154497 -42.873198 10.058704 0.000000 0.000000 0.000000 -7.125000 0.000000 0.000000 -10.541432 19.780175 -6.461316 0.000000 0.000000 0.000000 -8.869075 -1.531081 13.421775 -16.133573 -25.701356 -3.703652 -9.703310 22.974273 2.100685 0.000000 0.000000 0.000000 7.125000 0.000000 0.000000 13.501046 31.914617 4.430744
-7.827670 16.420372 -9.256958 -371.389715 24.769896 6.291087 0.000000 0.000000 0.000000 -10.178034 -6.545552 -47.567999 1.893749 8.640845 24.678385 0.298819 6.670706 -14.881889 0.656621 -5.182324 -14.429496 0.000000 0.000000 0.000000 30.552167 -2.700662 -1.171005 -0.524895 -4.641470 12.888932 -0.177988 18.648866 -14.647570 -1.334192 7.313925 -20.648911 11.532041 4.533664 1.181822 0.130506 6.620595 -5.345336 -6.575241 2.798101 -5.060216 -32.766290 -8.661493 22.393944 39.145637 -19.924588 0.458400 20.428099 -12.264338 4.506004 0.000000 0.000000 0.000000 5.450674 18.150870 -24.070081 24.393425 -35.576747 7.934619 11.509668 -41.731923 9.780790 0.000000 0.000000 0.000000 -7.125000 0.000000 0.000000 -11.009167 20.088371 -6.681128 0.000000 0.000000 0.000000 -7.776784 -1.172737 13.058435 -16.585097 -26.307441 -3.901725 -9.666487 22.778267 1.725311 0.000000 0.000000 0.000000 7.125000 0.000000 0.000000 13.473439 31.543243 4.545121
-7.605142 16.399226 -8.870938 -371.267347 24.828368 6.920410 0.000000 0.000000 0.000000 -9.273508 -7.425664 -47.059288 1.733288 8.286914 23.588960 0.274607 7.006435 -14.864297 0.828975 -5.807804 -16.228099 0.000000 0.000000 0.000000 30.163877 -2.883412 1.044324 -0.378002 -3.947841 10.929982 -0.041260 18.575490 -13.429948 -1.484753 7.698097 -21.800817 11.317139 4.686282 0.623876 -0.036368 6.768060 -5.759051 -6.603201 2.859071 -5.159719 -32.942245 -8.671736 22.552148 39.142424 -20.074528 0.567403 20.454796 -12.360209 4.597915 0.000000 0.000000 0.000000 5.591108 18.325724 -23.435303 22.807799 -33.877081 7.031248 11.256577 -40.656996 9.436843 0.000000 0.000000 0.000000 -7.125000 0.000000 0.000000 -11.205110 20.443099 -6.713484 0.000000 0.000000 0.000000 -6.534549 -0.270269 12.688525 -17.117000 -27.011757 -4.140411 -9.628659 22.119106 1.438921 0.000000 0.000000 0.000000 7.125000 0.000000 0.000000 13.460649 31.259778 4.634900
-7.356861 16.365861 -8.469332 -371.092643 25.037945 7.520327 0.000000 0.000000 0.000000 -9.567723 -7.337489 -46.557359 1.776714 8.384550 23.888299 0.364558 4.836338 -14.222402 0.932937 -6.152887 -17.228560 0.000000 0.000000 0.000000 29.693950 -2.900308 2.817311 -0.317432 -3.621533 10.014172 0.052647 18.292116 -12.379703 -1.709051 8.231381 -23.419349 11.100887 4.784519 0.030532 -0.197882 6.841514 -6.180464 -6.620837 2.883769 -5.263207 -33.184493 -8.727941 22.929560 39.204428 -20.292951 0.245357 20.516830 -12.517483 4.580167 0.000000 0.000000 0.000000 5.647093 18.446814 -22.179081 21.125000 -31.973590 6.116131 11.254804 -39.500635 8.887149 0.000000 0.000000 0.000000 -7.125000 0.000000 0.000000 -11.234945 20.992167 -6.590113 0.000000 0.000000 0.000000 -5.298633 1.015363 12.417498 -17.609499 -27.654265 -4.366548 -9.622042 21.124394 1.393744 0.000000 0.000000 0.000000 7.125000 0.000000 0.000000 13.459363 31.214979 4.649258
-7.082494 16.359177 -8.054019 -370.828217 25.464882 8.075046 0.000000 0.000000 0.000000 -11.423544 -5.805797 -46.902545 2.025197 8.917744 25.538757 0.392433 1.099762 -12.293877 0.821104 -5.780675 -16.149718 0.000000 0.000000 0.000000 29.077266 -2.993896 5.027901 -0.229194 -3.078955 8.498890 0.206660 17.687662 -10.384613 -2.075426 9.020232 -25.859449 10.938954 4.868772 -0.545143 -0.494388 6.900486 -6.654099 -6.815602 2.890930 -5.416123 -33.125842 -8.840276 23.750061 39.307926 -20.536336 -0.478945 20.565080 -12.723174 4.350364 0.000000 0.000000 0.000000 5.880879 18.666323 -20.748737 19.585141 -30.138495 5.321865 11.986831 -38.677563 8.255188 0.000000 0.000000 0.000000 -7.125000 0.000000 0.000000 -10.745107 21.597338 -6.142438 0.000000 0.000000 0.000000 -3.944196 2.732200 11.955877 -17.926504 -28.062930 -4.514609 -9.367319 20.438500 1.074688 0.000000 0.000000 0.000000 7.125000 0.000000 0.000000 13.611441 30.894161 4.812498
-6.785843 16.396057 -7.630201 -370.298356 26.201449 8.541711 0.000000 0.000000 0.000000 -13.348028 -4.903210 -47.223265 2.293696 9.452489 27.221530 0.269634 -1.872455 -9.336997 0.598541 -4.951703 -13.771134 0.000000 0.000000 0.000000 28.129137 -3.425827 7.483079 -0.137149 -2.386817 6.576026 0.451164 17.173219 -7.053163 -2.468152 9.779452 -28.265703 10.559139 4.782894 -1.043037 -0.772021 6.727919 -6.997663 -6.873569 2.800645 -5.538977 -33.065837 -8.952889 24.349597 39.291391 -20.708964 -1.188444 20.532367 -12.861489 4.111323 0.000000 0.000000 0.000000 5.910670 18.830592 -19.066879 18.294719 -28.532639 4.689343 13.557209 -38.483627 7.658375 0.000000 0.000000 0.000000 -7.125000 0.000000 0.000000 -9.642566 22.140967 -5.372181 0.000000 0.000000 0.000000 -2.797291 4.405683 11.459858 -17.874626 -27.996313 -4.490230 -8.986425 20.363508 0.594496 0.000000 0.000000 0.000000 7.125000 0.000000 0.000000 13.837871 30.412953 5.061234
-6.477673 16.426924 -7.202135 -369.265022 27.312213 8.973602 0.000000 0.000000 0.000000 -15.173022 -5.094072 -46.257362 2.474023 9.790397 28.300729 0.106436 -4.781310 -6.258896 0.358626 -3.840957 -10.630362 0.000000 0.000000 0.000000 26.763490 -3.456230 7.419418 -0.285256 -3.427181 9.471139 0.632199 17.295336 -4.627718 -2.660958 10.124821 -29.381983 9.667171 4.537520 -1.436510 -1.045031 6.333268 -7.175063 -6.647229 2.635165 -5.624074 -33.069526 -9.029424 24.798604 39.221297 -20.813213 -1.831855 20.486269 -12.946184 3.887207 0.000000 0.000000 0.000000 5.840894 18.956916 -17.573282 17.296665 -27.247011 4.222331 15.325461 -38.374760 7.130373 0.000000 0.000000 0.000000 -7.125000 0.000000 0.000000 -8.379764 22.612102 -4.561495 0.000000 0.000000 0.000000 -1.970907 6.044938 10.897983 -17.453771 -27.452019 -4.294522 -8.685501 20.614921 0.097148 0.000000 0.000000 0.000000 7.125000 0.000000 0.000000 13.999542 29.918201 5.294501
-6.161824 16.445749 -6.770510 -368.040175 28.626808 9.410225 0.000000 0.000000 0.000000 -16.662572 -6.163843 -44.545451 2.658138 10.119736 29.365534 -0.027610 -6.816776 -4.064323 0.082954 -1.830703 -5.038837 0.000000 0.000000 0.000000 25.238383 -3.209823 6.017170 -0.686947 -5.291304 14.742985 0.842504 17.791181 -1.736540 -2.915481 10.556642 -30.799239 8.506996 4.244428 -1.830344 -1.287756 5.876246 -7.329057 -6.237762 2.456317 -5.710917 -33.052488 -9.041422 25.247881 39.075014 -20.852901 -2.249306 20.422231 -12.990170 3.683027 0.000000 0.000000 0.000000 5.717013 19.157770 -16.560520 16.717866 -26.484302 3.960729 16.950840 -38.110277 6.568368 0.000000 0.000000 0.000000 -7.125000 0.000000 0.000000 -7.209157 23.128794 -3.827659 0.000000 0.000000 0.000000 -1.456172 7.838249 10.501305 -16.781124 -26.568046 -3.989081 -8.124951 21.052949 -0.119863 0.000000 0.000000 0.000000 7.125000 0.000000 0.000000 14.399581 29.694858 5.533991
-5.838321 16.458787 -6.340023 -367.153738 29.973120 9.652759 0.000000 0.000000 0.000000 -17.627599 -7.518756 -42.625507 2.868890 10.479747 30.544638 -0.078170 -7.573330 -3.343601 0.000312 0.115663 0.317728 0.000000 0.000000 0.000000 23.868897 -3.110481 4.245452 -1.261976 -7.121030 20.074372 1.098290 18.399774 3.806782 -3.035063 10.751502 -31.446440 7.596493 4.031381 -2.364480 -1.419318 5.528298 -7.405461 -5.831095 2.335198 -5.598758 -32.899446 -9.104518 25.708491 38.827264 -20.942179 -2.507823 20.267973 -13.048831 3.507532 0.000000 0.000000 0.000000 5.678920 19.440601 -16.687108 16.752461 -26.530283 3.976094 18.148447 -38.478438 6.024342 0.000000 0.000000 0.000000 -7.125000 0.000000 0.000000 -6.341919 23.649371 -3.284690 0.000000 0.000000 0.000000 -1.191055 9.484679 10.128936 -15.929397 -25.424815 -3.615588 -7.088466 21.840446 -0.259231 0.000000 0.000000 0.000000 7.125000 0.000000 0.000000 15.172757 29.539189 5.908840
-5.513595 16.472309 -5.922925 -366.605065 31.051522 9.577427 0.000000 0.000000 0.000000 -18.609297 -7.989961 -40.627316 3.062948 10.796176 31.595652 -0.092751 -8.547136 -3.950318 0.058957 1.559153 4.288931 0.000000 0.000000 0.000000 22.621798 -2.887240 2.202514 -2.002226 -8.866476 25.381393 0.957174 17.828227 12.267295 -2.492420 9.820586 -28.400719 6.891126 3.843977 -2.684324 -1.341448 5.247010 -7.380471 -5.331515 2.242601 -5.487421 -32.987861 -9.145762 25.910237 38.562449 -21.077856 -2.468716 20.119487 -13.110731 3.508214 0.000000 0.000000 0.000000 5.471506 19.718417 -17.377648 17.244474 -27.178829 4.198511 18.158431 -39.143991 5.908934 0.000000 0.000000 0.000000 -7.125000 0.000000 0.000000 -6.337555 23.769716 -3.264773 0.000000 0.000000 0.000000 -1.411057 10.779692 10.018178 -14.933285 -24.052674 -3.198957 -5.699084 23.293071 -0.659053 0.000000 0.000000 0.000000 7.125000 0.000000 0.000000 16.168668 29.125287 6.492288
